HIERARCHY
ROOT root
{
	OFFSET 0.000000 0.000000 0.000000
	CHANNELS 6 Xposition Yposition Zposition Zrotation Yrotation Xrotation
	JOINT lhip
	{
		OFFSET 0.058581 -0.082280 -0.017664
		CHANNELS 3 Zrotation Yrotation Xrotation
		JOINT lknee
		{
			OFFSET 0.043451 -0.386469 0.008037
			CHANNELS 3 Zrotation Yrotation Xrotation
			JOINT lankle
			{
				OFFSET -0.014790 -0.426874 -0.037428
				CHANNELS 3 Zrotation Yrotation Xrotation
				JOINT ltoe
				{
					OFFSET 0.041054 -0.060286 0.122042
					CHANNELS 3 Zrotation Yrotation Xrotation
					End Site
					{
						OFFSET 0.000000 0.000000 0.000000
					}
				}
			}
		}
	}
	JOINT rhip
	{
		OFFSET -0.060310 -0.090513 -0.013543
		CHANNELS 3 Zrotation Yrotation Xrotation
		JOINT rknee
		{
			OFFSET -0.043257 -0.383688 -0.004843
			CHANNELS 3 Zrotation Yrotation Xrotation
			JOINT rankle
			{
				OFFSET 0.019056 -0.420046 -0.034562
				CHANNELS 3 Zrotation Yrotation Xrotation
				JOINT rtoe
				{
					OFFSET -0.034840 -0.062106 0.130323
					CHANNELS 3 Zrotation Yrotation Xrotation
					End Site
					{
						OFFSET 0.000000 0.000000 0.000000
					}
				}
			}
		}
	}
	JOINT lowerback
	{
		OFFSET 0.004439 0.124404 -0.038385
		CHANNELS 3 Zrotation Yrotation Xrotation
		JOINT upperback
		{
			OFFSET 0.004488 0.137956 0.026820
			CHANNELS 3 Zrotation Yrotation Xrotation
			JOINT chest
			{
				OFFSET -0.002265 0.056032 0.002855
				CHANNELS 3 Zrotation Yrotation Xrotation
				JOINT lowerneck
				{
					OFFSET -0.013390 0.211636 -0.033468
					CHANNELS 3 Zrotation Yrotation Xrotation
					JOINT upperneck
					{
						OFFSET 0.010113 0.088937 0.050410
						CHANNELS 3 Zrotation Yrotation Xrotation
						End Site
						{
							OFFSET 0.000000 0.000000 0.000000
						}
					}
				}
				JOINT lclavicle
				{
					OFFSET 0.071702 0.114000 -0.018898
					CHANNELS 3 Zrotation Yrotation Xrotation
					JOINT lshoulder
					{
						OFFSET 0.122921 0.045205 -0.019046
						CHANNELS 3 Zrotation Yrotation Xrotation
						JOINT lelbow
						{
							OFFSET 0.255332 -0.015649 -0.022946
							CHANNELS 3 Zrotation Yrotation Xrotation
							JOINT lwrist
							{
								OFFSET 0.265709 0.012698 -0.007375
								CHANNELS 3 Zrotation Yrotation Xrotation
								End Site
								{
									OFFSET 0.000000 0.000000 0.000000
								}
							}
						}
					}
				}
				JOINT rclavicle
				{
					OFFSET -0.082954 0.112472 -0.023707
					CHANNELS 3 Zrotation Yrotation Xrotation
					JOINT rshoulder
					{
						OFFSET -0.113228 0.046853 -0.008472
						CHANNELS 3 Zrotation Yrotation Xrotation
						JOINT relbow
						{
							OFFSET -0.260127 -0.014369 -0.031269
							CHANNELS 3 Zrotation Yrotation Xrotation
							JOINT rwrist
							{
								OFFSET -0.269108 0.006794 -0.006027
								CHANNELS 3 Zrotation Yrotation Xrotation
								End Site
								{
									OFFSET 0.000000 0.000000 0.000000
								}
							}
						}
					}
				}
			}
		}
	}
}
MOTION
Frames: 14
Frame Time: 0.033333
2.353192 0.722430 0.997736 -88.136809 -0.942263 82.637165 -2.259195 0.887634 4.283398 -0.446971 -10.042018 2.071352 1.976179 8.777725 -4.529429 0.000000 -0.000000 0.000000 1.173763 -2.881966 2.803363 -3.662024 -1.500376 6.847975 0.119558 -11.077037 -10.769897 0.000000 -0.000000 0.000000 -0.427204 0.671719 9.171205 -0.348779 -0.921038 -0.218839 -0.669511 1.148692 -0.513138 -0.317109 -0.375180 4.784158 -0.971774 -2.522364 16.152434 -26.964554 -6.305931 5.011312 -54.460855 -10.065516 13.893121 -2.804271 -19.607511 20.190039 5.199645 -6.700152 -5.126487 25.872968 10.983461 7.538973 54.585421 6.055638 20.103806 1.406190 26.524874 20.419664 -5.348783 5.426760 -4.185598 
2.353925 0.722594 0.997782 -88.224679 -0.885934 82.702681 -2.131346 0.813993 4.084931 -0.612362 -9.926563 2.246578 1.996121 8.814708 -4.551691 0.000000 -0.000000 0.000000 1.305473 -2.714895 2.640694 -3.716646 -1.556595 6.937980 0.069412 -11.036551 -10.612246 0.000000 -0.000000 0.000000 -0.389722 0.560063 9.216981 -0.352846 -0.807605 -0.360251 -0.683076 1.203389 -0.456967 -0.361365 -0.364043 4.835064 -1.034281 -2.402020 16.112600 -27.043310 -6.300761 5.059097 -54.455475 -10.104469 14.037389 -2.565743 -19.562991 20.180309 5.057596 -6.871617 -5.233966 25.745676 10.985222 7.467338 54.667446 5.976185 20.345287 1.254948 26.714641 20.619467 -5.060919 5.470198 -4.837932 
2.354407 0.722581 0.997790 -88.282807 -0.927200 82.650648 -2.242571 0.833441 4.141220 -0.493810 -9.947715 2.195190 2.036788 8.911039 -4.532768 0.000000 -0.000000 0.000000 1.281195 -2.612957 2.651215 -3.767010 -1.667092 6.982665 0.178476 -11.158840 -10.742173 0.000000 -0.000000 0.000000 -0.448809 0.521848 9.467704 -0.380212 -0.706582 -0.541370 -0.662545 1.238137 -0.466355 -0.424274 -0.418622 4.737165 -1.035765 -2.421693 16.297240 -27.024479 -6.367159 4.966681 -54.457931 -10.037398 14.071683 -2.598776 -19.444504 20.323661 4.673083 -6.868816 -5.085157 25.677543 11.048100 7.431133 54.707873 5.743546 20.365095 1.058483 27.076226 20.401680 -4.522802 5.401670 -4.743544 
2.354643 0.722470 0.997657 -88.231441 -0.858153 82.651621 -2.128639 0.843932 3.982056 -0.546434 -9.868990 2.469171 1.867845 9.032410 -4.899833 0.000000 -0.000000 0.000000 1.324461 -2.697222 2.638667 -3.751384 -1.623819 6.991614 0.313971 -11.198438 -11.034847 0.000000 -0.000000 0.000000 -0.388441 0.495429 9.492719 -0.393463 -0.784436 -0.542549 -0.700511 1.255545 -0.457902 -0.378564 -0.435732 4.632680 -1.068915 -2.558043 16.306646 -26.893794 -6.325452 5.003637 -54.564825 -10.118082 14.044394 -2.477649 -19.503462 20.549688 5.033011 -6.926165 -5.438805 25.524846 11.127229 7.340913 54.962882 5.933423 20.423259 1.159222 26.542621 20.740876 -5.065346 5.440650 -5.071332 
2.354849 0.722580 0.997756 -88.260628 -0.798348 82.640401 -2.021225 0.855387 3.868902 -0.631207 -9.915953 2.748216 1.674764 9.210182 -5.700071 0.000000 -0.000000 0.000000 1.405443 -2.655903 2.632758 -3.731637 -1.579418 7.005855 0.453499 -11.270159 -11.415563 0.000000 -0.000000 0.000000 -0.375208 0.536179 9.610339 -0.383646 -0.723828 -0.733695 -0.691127 1.229144 -0.421689 -0.282985 -0.460567 4.596768 -1.094859 -2.585666 16.439780 -26.966432 -6.398861 5.124071 -54.469010 -10.153025 13.993082 -2.459611 -19.491147 20.471948 5.101597 -7.008779 -5.507973 25.590645 11.187836 7.464038 54.936316 5.946082 20.436693 1.075023 26.390612 20.592694 -5.443485 5.676688 -5.322405 
2.354403 0.722329 0.997673 -88.207968 -0.905119 82.599116 -2.134782 0.667192 3.836317 -0.782237 -10.158654 3.143273 1.716119 9.247918 -6.277459 0.000000 -0.000000 0.000000 1.235791 -2.693466 2.651747 -3.697618 -1.461377 7.168228 0.582599 -11.414549 -11.771930 0.000000 -0.000000 0.000000 -0.526307 0.617572 9.525101 -0.363457 -0.794706 -0.682952 -0.716856 1.233081 -0.294141 -0.214325 -0.514829 4.459887 -1.139212 -2.648783 16.477176 -26.895813 -6.302314 4.987268 -54.492832 -10.236755 13.971483 -2.516324 -19.471975 20.375388 5.157529 -6.838769 -5.667202 25.543038 11.089982 7.277202 55.018758 5.930269 20.514810 1.074703 26.340434 20.591429 -5.102893 5.621509 -5.157442 
2.353926 0.722172 0.997648 -88.345121 -0.890950 82.655141 -1.984722 0.624266 3.661391 -1.118695 -10.091719 3.521690 1.766606 9.311706 -6.987462 0.000000 -0.000000 0.000000 1.226776 -2.700229 2.586905 -3.655833 -1.378213 7.239245 0.644843 -11.283967 -11.898612 0.000000 -0.000000 0.000000 -0.603056 0.769479 9.364825 -0.293442 -0.731687 -0.673117 -0.699440 1.200046 -0.227517 -0.273430 -0.609349 4.800948 -1.017359 -2.747703 16.044799 -26.869415 -6.313952 5.062121 -54.415406 -10.149513 14.014421 -2.719174 -19.765045 20.284710 4.810739 -6.389101 -5.725364 25.426871 11.021883 7.223636 55.120964 5.896886 20.534533 1.003860 26.364085 20.472341 -4.600325 5.435483 -4.837341 
2.353414 0.722049 0.997724 -88.563819 -0.894000 82.616267 -2.046152 0.675043 3.909654 -1.042169 -10.161122 3.325396 1.748711 9.399710 -7.228713 0.000000 -0.000000 0.000000 1.223623 -2.628527 2.661020 -3.667681 -1.319180 7.256573 0.687561 -11.344627 -12.073737 0.000000 -0.000000 0.000000 -0.622890 0.792746 9.287624 -0.320490 -0.621838 -0.529295 -0.712078 1.218496 -0.265142 -0.221332 -0.729584 4.861103 -1.043589 -2.899519 16.143288 -26.941763 -6.202318 4.986229 -54.391796 -10.104139 13.887712 -2.667398 -19.730318 20.186070 4.537994 -6.229066 -5.111611 25.509644 11.044009 7.220924 55.020530 5.881475 20.510762 1.085589 26.383971 20.433314 -4.413290 5.470061 -4.584757 
2.352648 0.721711 0.997792 -88.627059 -0.794182 82.708713 -1.974486 0.680544 3.863743 -1.045324 -10.241495 3.384614 1.910193 9.317006 -7.379915 0.000000 -0.000000 0.000000 1.302948 -2.720710 2.635992 -3.671560 -1.274333 7.232521 0.597094 -11.294982 -12.153622 0.000000 -0.000000 0.000000 -0.583357 0.815389 9.348351 -0.306942 -0.657386 -0.657710 -0.688567 1.199719 -0.406401 -0.347954 -0.777101 4.959019 -0.884877 -2.904647 16.172440 -27.027084 -6.133778 5.018440 -54.430446 -9.934718 13.855057 -2.632187 -19.592971 20.291547 4.710930 -6.392819 -4.988950 25.555129 10.972673 7.214610 54.863138 5.503339 20.397268 1.097856 26.953220 20.454544 -4.017234 5.374777 -4.776899 
2.351270 0.721299 0.997761 -88.984405 -0.898957 82.928893 -2.113872 0.667155 3.728436 -1.113109 -10.051283 3.538788 1.952797 9.377876 -7.952110 0.000000 -0.000000 0.000000 1.179617 -2.507236 2.432591 -3.634811 -1.133200 7.293795 0.875657 -11.131829 -12.372378 0.000000 -0.000000 0.000000 -0.754809 0.831617 9.027147 -0.323490 -0.553266 -0.655504 -0.793264 1.230051 -0.310066 -0.264841 -0.912443 4.986363 -0.839902 -3.167990 15.967537 -26.981513 -5.962100 4.973437 -54.447696 -9.848349 13.675741 -2.297974 -19.542451 19.989773 2.363229 -5.811781 -5.709121 25.839525 10.922532 7.354053 55.051183 5.591247 20.213497 -0.288466 27.147982 19.009447 -2.092558 5.209537 -4.156086 
2.349144 0.720787 0.997896 -89.043761 -0.687974 83.226055 -1.813726 0.471068 3.549538 -1.346030 -9.863653 3.618834 2.110885 9.311501 -8.561588 0.000000 -0.000000 0.000000 1.355484 -2.776383 2.332206 -3.592350 -1.010118 7.153703 1.078742 -10.873675 -12.720771 0.000000 -0.000000 0.000000 -0.702831 1.104069 8.529879 -0.079622 -0.815179 -0.441490 -0.857262 1.338124 -0.294234 -0.378676 -1.155570 5.081839 -0.702969 -3.865960 15.385862 -26.683011 -5.486669 4.825427 -54.963031 -9.865414 13.318521 -1.937076 -19.764820 20.211085 0.498161 -5.334142 -6.570070 25.745959 10.383523 7.147858 55.747135 5.474070 19.491232 -2.768925 27.458107 16.951367 -0.882690 4.775645 -3.256118 
2.348131 0.720247 0.998132 -89.282491 -0.618957 83.433867 -1.783569 0.567561 3.351979 -1.357661 -9.686025 3.790743 2.488001 9.404127 -8.953072 0.000000 -0.000000 0.000000 1.535430 -2.673737 2.175415 -3.739320 -0.819826 7.152128 0.971732 -10.805236 -12.977602 0.000000 -0.000000 0.000000 -0.703630 1.154875 8.675092 -0.056698 -0.759368 -0.454833 -0.877884 1.328685 -0.381743 -0.378391 -1.751799 5.087222 -0.514896 -4.602390 14.300395 -26.435509 -5.061324 4.806052 -55.197230 -9.711490 12.902034 -1.429094 -20.695945 20.003403 0.761617 -4.422070 -7.665196 25.681865 10.066149 6.842549 56.495640 5.517435 18.599809 -5.633840 27.485010 13.547332 -2.431652 4.487269 -3.575151 
2.345866 0.719066 0.998353 -89.470682 -0.628510 83.720514 -1.967698 0.412580 3.206030 -1.301662 -9.452654 4.001662 2.972931 9.433119 -9.785594 0.000000 -0.000000 0.000000 1.442298 -2.730693 2.138722 -3.763734 -0.738998 6.969713 1.220617 -10.588785 -13.421393 0.000000 -0.000000 0.000000 -0.825483 1.449336 8.468218 0.090613 -0.799287 -0.518712 -0.893325 1.258413 -0.274451 -0.458779 -2.859047 4.862122 -0.425402 -5.705203 13.620606 -26.051801 -4.669906 4.782626 -55.618889 -9.642570 12.377760 -0.834465 -21.283730 19.196301 -0.369335 -4.116650 -8.978305 25.330937 9.620458 6.505642 57.387909 5.388113 17.300219 -9.155577 27.449114 8.808309 -1.136717 3.814794 -4.878614 
2.344732 0.717708 0.998651 -90.193084 -0.748364 83.990781 -2.195200 0.565509 3.239712 -1.296132 -9.129604 3.767067 3.329304 9.605533 -10.466291 0.000000 -0.000000 0.000000 1.279741 -2.301378 1.778496 -3.786380 -0.514566 7.135056 1.277350 -10.232973 -13.149092 0.000000 -0.000000 0.000000 -1.044016 1.477703 8.812506 0.077542 -0.350491 -0.800928 -0.889893 1.426024 -0.199766 -0.341866 -3.712099 4.288750 -0.065824 -6.728083 12.938475 -25.788798 -4.093827 4.555262 -55.860668 -9.708653 11.800839 -0.263878 -21.465621 18.461947 0.311688 -4.415418 -8.781788 25.392829 9.273089 6.236419 57.312806 5.426778 16.237470 -11.614485 27.270176 5.347177 -2.039828 4.399710 -4.724149 
